<mxfile host="app.diagrams.net" agent="Mozilla/5.0 (Windows NT 10.0; Win64; x64; rv:128.0) Gecko/20100101 Firefox/128.0" version="26.0.11">
  <diagram id="C5RBs43oDa-KdzZeNtuy" name="Page-1">
    <mxGraphModel dx="1658" dy="914" grid="1" gridSize="10" guides="1" tooltips="1" connect="1" arrows="1" fold="1" page="1" pageScale="1" pageWidth="1654" pageHeight="2336" math="0" shadow="0">
      <root>
        <mxCell id="WIyWlLk6GJQsqaUBKTNV-0" />
        <mxCell id="WIyWlLk6GJQsqaUBKTNV-1" parent="WIyWlLk6GJQsqaUBKTNV-0" />
        <mxCell id="Bz1uYGqDwAfH_G4NEDOJ-3" value="" style="edgeStyle=orthogonalEdgeStyle;rounded=0;orthogonalLoop=1;jettySize=auto;html=1;" edge="1" parent="WIyWlLk6GJQsqaUBKTNV-1" source="Bz1uYGqDwAfH_G4NEDOJ-1" target="Bz1uYGqDwAfH_G4NEDOJ-2">
          <mxGeometry relative="1" as="geometry" />
        </mxCell>
        <mxCell id="Bz1uYGqDwAfH_G4NEDOJ-1" value="player opens game" style="strokeWidth=2;html=1;shape=mxgraph.flowchart.terminator;whiteSpace=wrap;" vertex="1" parent="WIyWlLk6GJQsqaUBKTNV-1">
          <mxGeometry x="490" y="30" width="170" height="100" as="geometry" />
        </mxCell>
        <mxCell id="Bz1uYGqDwAfH_G4NEDOJ-5" value="" style="edgeStyle=orthogonalEdgeStyle;rounded=0;orthogonalLoop=1;jettySize=auto;html=1;" edge="1" parent="WIyWlLk6GJQsqaUBKTNV-1" source="Bz1uYGqDwAfH_G4NEDOJ-2" target="Bz1uYGqDwAfH_G4NEDOJ-4">
          <mxGeometry relative="1" as="geometry" />
        </mxCell>
        <mxCell id="Bz1uYGqDwAfH_G4NEDOJ-2" value="home screen opens" style="whiteSpace=wrap;html=1;strokeWidth=2;" vertex="1" parent="WIyWlLk6GJQsqaUBKTNV-1">
          <mxGeometry x="515" y="160" width="120" height="60" as="geometry" />
        </mxCell>
        <mxCell id="Bz1uYGqDwAfH_G4NEDOJ-7" value="new" style="edgeStyle=orthogonalEdgeStyle;rounded=0;orthogonalLoop=1;jettySize=auto;html=1;" edge="1" parent="WIyWlLk6GJQsqaUBKTNV-1" source="Bz1uYGqDwAfH_G4NEDOJ-4" target="Bz1uYGqDwAfH_G4NEDOJ-6">
          <mxGeometry relative="1" as="geometry" />
        </mxCell>
        <mxCell id="Bz1uYGqDwAfH_G4NEDOJ-4" value="new game or existing save point" style="rhombus;whiteSpace=wrap;html=1;strokeWidth=2;" vertex="1" parent="WIyWlLk6GJQsqaUBKTNV-1">
          <mxGeometry x="515" y="260" width="117.5" height="110" as="geometry" />
        </mxCell>
        <mxCell id="Bz1uYGqDwAfH_G4NEDOJ-6" value="stats screen appears &quot;enter your characters race&quot;" style="whiteSpace=wrap;html=1;strokeWidth=2;" vertex="1" parent="WIyWlLk6GJQsqaUBKTNV-1">
          <mxGeometry x="711.25" y="285" width="120" height="60" as="geometry" />
        </mxCell>
      </root>
    </mxGraphModel>
  </diagram>
</mxfile>
